HIERARCHY
ROOT Hips
{
  OFFSET 87.4673 23.7848 111.322
  CHANNELS 6 Xposition Yposition Zposition Zrotation Xrotation Yrotation
  JOINT LeftHip
  {
    OFFSET 3.43 0 0
    CHANNELS 6 Xposition Yposition Zposition Zrotation Xrotation Yrotation
    JOINT LeftKnee
    {
      OFFSET 0 -18.47 0
      CHANNELS 6 Xposition Yposition Zposition Zrotation Xrotation Yrotation
      JOINT LeftAnkle
      {
        OFFSET 0 -17.95 0
        CHANNELS 6 Xposition Yposition Zposition Zrotation Xrotation Yrotation
        End Site
        {
          OFFSET 0 -3.12 0
        }
      }
    }
  }
  JOINT RightHip
  {
    OFFSET -3.43 0 0
    CHANNELS 6 Xposition Yposition Zposition Zrotation Xrotation Yrotation
    JOINT RightKnee
    {
      OFFSET 0 -18.47 0
      CHANNELS 6 Xposition Yposition Zposition Zrotation Xrotation Yrotation
      JOINT RightAnkle
      {
        OFFSET 0 -17.95 0
        CHANNELS 6 Xposition Yposition Zposition Zrotation Xrotation Yrotation
        End Site
        {
          OFFSET 0 -3.12 0
        }
      }
    }
  }
  JOINT Chest
  {
    OFFSET 0 4.57 0
    CHANNELS 6 Xposition Yposition Zposition Zrotation Xrotation Yrotation
    JOINT CS_BVH
    {
      OFFSET 0 6.57 0
      CHANNELS 6 Xposition Yposition Zposition Zrotation Xrotation Yrotation
      JOINT LeftCollar
      {
        OFFSET 1.06 4.19 1.76
        CHANNELS 6 Xposition Yposition Zposition Zrotation Xrotation Yrotation
        JOINT LeftShoulder
        {
          OFFSET 5.81 0 0
          CHANNELS 6 Xposition Yposition Zposition Zrotation Xrotation Yrotation
          JOINT LeftElbow
          {
            OFFSET 0 -12.08 0
            CHANNELS 6 Xposition Yposition Zposition Zrotation Xrotation Yrotation
            JOINT LeftWrist
            {
              OFFSET 0 -9.82 0
              CHANNELS 6 Xposition Yposition Zposition Zrotation Xrotation Yrotation
              End Site
              {
                OFFSET 0 -7.37 0
              }
            }
          }
        }
      }
      JOINT RightCollar
      {
        OFFSET -1.06 4.19 1.76
        CHANNELS 6 Xposition Yposition Zposition Zrotation Xrotation Yrotation
        JOINT RightShoulder
        {
          OFFSET -6.06 0 0
          CHANNELS 6 Xposition Yposition Zposition Zrotation Xrotation Yrotation
          JOINT RightElbow
          {
            OFFSET 0 -11.08 0
            CHANNELS 6 Xposition Yposition Zposition Zrotation Xrotation Yrotation
            JOINT RightWrist
            {
              OFFSET 0 -9.82 0
              CHANNELS 6 Xposition Yposition Zposition Zrotation Xrotation Yrotation
              End Site
              {
                OFFSET 0 -7.14001 0
              }
            }
          }
        }
      }
      JOINT Neck
      {
        OFFSET 0 4.05 0
        CHANNELS 6 Xposition Yposition Zposition Zrotation Xrotation Yrotation
        JOINT Head
        {
          OFFSET 0 5.19 0
          CHANNELS 6 Xposition Yposition Zposition Zrotation Xrotation Yrotation
          End Site
          {
            OFFSET 0 4.14001 0
          }
        }
      }
    }
  }
}
MOTION
Frames:	4
Frame Time:	0.0333333
-33.1861 23.7579 9.19423 -15.5814 -18.0497 67.5258 3.43 -7.10543e-015 -3.55271e-015 23.6352 -31.0053 4.56135 1.35003e-013 -18.47 5.38236e-013 -119.722 78.4393 114.749 -2.30926e-012 -17.95 3.82805e-012 7.53725 -1.75587 0.369676 -3.43 -7.10543e-015 -7.10543e-015 20.0383 -32.053 -20.7828 -1.1724e-013 -18.47 6.39488e-014 55.8652 74.5666 -31.9822 -2.33591e-012 -17.95 5.86198e-013 -43.3349 -32.1946 -10.4382 1.42109e-014 4.57 -2.13163e-014 26.9696 5.99991 -2.64418 -3.55271e-015 6.57 -1.42109e-014 12.7559 15.0719 3.19388 1.06 4.19 1.76 5.28785 0.0904197 13.1342 5.81 -2.13163e-014 2.20268e-013 18.5814 17.4991 9.56566 -2.06839e-011 -12.08 -4.09273e-012 1.88648 -2.4915 2.76439 2.81561e-010 -9.82 3.47882e-011 9.38175 -0.734367 4.91566 -1.06 4.19 1.76 -39.9224 -10.2591 11.5149 -6.06 -2.13163e-014 -2.70006e-013 -8.00941 -14.9424 43.718 1.97957e-011 -11.08 5.81935e-012 -21.9176 -69.4008 -75.5058 -2.68081e-010 -9.82 6.861e-011 9.96185 -1.71499 -1.8395 3.55271e-015 4.05 -3.90799e-014 -8.80845 -22.6408 3.59379 2.45137e-013 5.19 2.13163e-014 -6.37221 4.57484 -3.43157 
-27.3554 25.0868 14.3822 -20.5239 -16.6645 59.0057 3.43 -7.10543e-015 -3.55271e-015 24.5046 -40.3738 4.80475 1.35003e-013 -18.47 5.38236e-013 -99.2597 79.6975 91.0783 -2.30926e-012 -17.95 3.82805e-012 9.36608 -1.84107 0.250203 -3.43 -7.10543e-015 -7.10543e-015 20.5844 -14.2861 -24.0566 -1.1724e-013 -18.47 6.39488e-014 47.5778 68.3981 -6.67534 -2.33591e-012 -17.95 5.86198e-013 -49.3147 -31.6556 -11.0501 1.42109e-014 4.57 -2.13163e-014 28.0458 3.35044 0.180375 -3.55271e-015 6.57 -1.42109e-014 10.4065 10.8213 5.55116 1.06 4.19 1.76 5.36816 -1.51328 14.7675 5.81 -2.13163e-014 2.20268e-013 16.4945 27.021 8.59455 -2.06839e-011 -12.08 -4.09273e-012 1.38496 -2.32492 2.77946 2.81561e-010 -9.82 3.47882e-011 11.5468 -1.0728 3.93866 -1.06 4.19 1.76 -44.6246 -12.3014 10.7658 -6.06 -2.13163e-014 -2.70006e-013 -14.0081 -18.8372 41.9929 1.97957e-011 -11.08 5.81935e-012 -30.2143 -79.4422 -94.7772 -2.68081e-010 -9.82 6.861e-011 9.51553 -1.5818 -1.47306 3.55271e-015 4.05 -3.90799e-014 -7.01061 -23.5928 5.23466 2.45137e-013 5.19 2.13163e-014 -6.11123 4.59063 -3.55356 
-21.722 28.2626 19.8679 -21.534 -12.0382 52.832 3.43 -7.10543e-015 -3.55271e-015 20.6837 -44.3699 8.06866 1.35003e-013 -18.47 5.38236e-013 -45.6644 76.1725 34.4629 -2.30926e-012 -17.95 3.82805e-012 10.0442 -3.14298 0.403851 -3.43 -7.10543e-015 -7.10543e-015 15.9698 -1.98471 -20.166 -1.1724e-013 -18.47 6.39488e-014 34.8824 60.2643 8.30476 -2.33591e-012 -17.95 5.86198e-013 -32.9262 -28.1549 -5.80939 1.42109e-014 4.57 -2.13163e-014 25.6066 1.65741 2.69668 -3.55271e-015 6.57 -1.42109e-014 7.49147 7.58494 7.00847 1.06 4.19 1.76 6.33101 -1.04371 13.5437 5.81 -2.13163e-014 2.20268e-013 11.4265 32.456 11.181 -2.06839e-011 -12.08 -4.09273e-012 2.07331 -3.06614 2.16073 2.81561e-010 -9.82 3.47882e-011 10.1656 -0.877098 4.36666 -1.06 4.19 1.76 -46.8458 -11.543 11.3397 -6.06 -2.13163e-014 -2.70006e-013 -17.0182 -15.7907 42.2809 1.97957e-011 -11.08 5.81935e-012 -72.7533 -79.1779 -144.354 -2.68081e-010 -9.82 6.861e-011 10.0835 -1.9983 -3.33788 3.55271e-015 4.05 -3.90799e-014 -5.18126 -22.6285 6.71556 2.45137e-013 5.19 2.13163e-014 -4.67345 4.2401 -3.50321 
-17.9059 31.6293 24.0321 -19.5482 -6.79554 51.4484 3.43 -7.10543e-015 -3.55271e-015 8.39217 -47.37 6.13971 1.35003e-013 -18.47 5.38236e-013 -24.0935 65.6078 10.4398 -2.30926e-012 -17.95 3.82805e-012 9.05984 -3.85327 0.748569 -3.43 -7.10543e-015 -7.10543e-015 15.1004 3.29264 -15.015 -1.1724e-013 -18.47 6.39488e-014 22.2459 51.1365 14.1106 -2.33591e-012 -17.95 5.86198e-013 -15.857 -14.2848 -1.57417 1.42109e-014 4.57 -2.13163e-014 17.586 2.53669 4.28827 -3.55271e-015 6.57 -1.42109e-014 6.61985 8.13083 6.66192 1.06 4.19 1.76 5.13905 0.812072 11.1207 5.81 -2.13163e-014 2.20268e-013 9.37212 29.8794 13.4134 -2.06839e-011 -12.08 -4.09273e-012 2.60526 -2.98348 2.09148 2.81561e-010 -9.82 3.47882e-011 8.98975 -0.788224 4.13637 -1.06 4.19 1.76 -45.2792 -8.18608 11.2695 -6.06 -2.13163e-014 -2.70006e-013 -19.5049 -11.7795 41.6188 1.97957e-011 -11.08 5.81935e-012 -74.5177 -79.8598 -147.802 -2.68081e-010 -9.82 6.861e-011 8.94205 -1.87746 -3.7929 3.55271e-015 4.05 -3.90799e-014 -4.09114 -20.9411 5.866 2.45137e-013 5.19 2.13163e-014 -4.81981 4.6145 -2.85859 
